<svg   id="chart"   width="1000"   height="500"   viewBox="0 0 1000 500"   xmlns="http://www.w3.org/2000/svg" >     		     <path d="  M0,500  h28.571428571428573  v-489.55073321850057  q0,-4 -4,-4  h-20.571428571428573  q-4,0 -4,4  Z" fill="#03bbff" /> <path d="  M35.714285714285715,500  h28.571428571428573  v-483.2784693647266  q0,-4 -4,-4  h-20.571428571428573  q-4,0 -4,4  Z" fill="#03bbff" /> <path d="  M71.42857142857143,500  h28.571428571428573  v-468.21485494012285  q0,-4 -4,-4  h-20.571428571428573  q-4,0 -4,4  Z" fill="#03bbff" /> <path d="  M107.14285714285714,500  h28.571428571428573  v-450.984829708745  q0,-4 -4,-4  h-20.571428571428573  q-4,0 -4,4  Z" fill="#03bbff" /> <path d="  M142.85714285714286,500  h28.571428571428573  v-422.1582685843561  q0,-4 -4,-4  h-20.571428571428573  q-4,0 -4,4  Z" fill="#03bbff" /> <path d="  M178.57142857142858,500  h28.571428571428573  v-441.6012312319853  q0,-4 -4,-4  h-20.571428571428573  q-4,0 -4,4  Z" fill="#03bbff" /> <path d="  M214.28571428571428,500  h28.571428571428573  v-415.13658980956444  q0,-4 -4,-4  h-20.571428571428573  q-4,0 -4,4  Z" fill="#03bbff" /> <path d="  M250,500  h28.571428571428573  v-415.62826763934487  q0,-4 -4,-4  h-20.571428571428573  q-4,0 -4,4  Z" fill="#03bbff" /> <path d="  M285.7142857142857,500  h28.571428571428573  v-372.13516666480297  q0,-4 -4,-4  h-20.571428571428573  q-4,0 -4,4  Z" fill="#03bbff" /> <path d="  M321.42857142857144,500  h28.571428571428573  v-335.1702822628541  q0,-4 -4,-4  h-20.571428571428573  q-4,0 -4,4  Z" fill="#03bbff" /> <path d="  M357.14285714285717,500  h28.571428571428573  v-377.0909080126853  q0,-4 -4,-4  h-20.571428571428573  q-4,0 -4,4  Z" fill="#03bbff" /> <path d="  M392.8571428571429,500  h28.571428571428573  v-318.8165848687078  q0,-4 -4,-4  h-20.571428571428573  q-4,0 -4,4  Z" fill="#03bbff" /> <path d="  M428.57142857142856,500  h28.571428571428573  v-289.6806326802431  q0,-4 -4,-4  h-20.571428571428573  q-4,0 -4,4  Z" fill="#03bbff" /> <path d="  M464.2857142857143,500  h28.571428571428573  v-334.0866105436048  q0,-4 -4,-4  h-20.571428571428573  q-4,0 -4,4  Z" fill="#03bbff" /> <path d="  M500,500  h28.571428571428573  v-310.8254163536483  q0,-4 -4,-4  h-20.571428571428573  q-4,0 -4,4  Z" fill="#03bbff" /> <path d="  M535.7142857142858,500  h28.571428571428573  v-336.9660303208543  q0,-4 -4,-4  h-20.571428571428573  q-4,0 -4,4  Z" fill="#03bbff" /> <path d="  M571.4285714285714,500  h28.571428571428573  v-211.0442730561191  q0,-4 -4,-4  h-20.571428571428573  q-4,0 -4,4  Z" fill="#03bbff" /> <path d="  M607.1428571428571,500  h28.571428571428573  v-303.4996197697161  q0,-4 -4,-4  h-20.571428571428573  q-4,0 -4,4  Z" fill="#03bbff" /> <path d="  M642.8571428571429,500  h28.571428571428573  v-184.9963909016543  q0,-4 -4,-4  h-20.571428571428573  q-4,0 -4,4  Z" fill="#03bbff" /> <path d="  M678.5714285714286,500  h28.571428571428573  v-229.39619409580752  q0,-4 -4,-4  h-20.571428571428573  q-4,0 -4,4  Z" fill="#03bbff" /> <path d="  M714.2857142857143,500  h28.571428571428573  v-300.3042710089434  q0,-4 -4,-4  h-20.571428571428573  q-4,0 -4,4  Z" fill="#03bbff" /> <path d="  M750,500  h28.571428571428573  v-163.39570272745198  q0,-4 -4,-4  h-20.571428571428573  q-4,0 -4,4  Z" fill="#03bbff" /> <path d="  M785.7142857142858,500  h28.571428571428573  v-147.87540999128532  q0,-4 -4,-4  h-20.571428571428573  q-4,0 -4,4  Z" fill="#03bbff" /> <path d="  M821.4285714285714,500  h28.571428571428573  v-247.16502797235395  q0,-4 -4,-4  h-20.571428571428573  q-4,0 -4,4  Z" fill="#03bbff" /> <path d="  M857.1428571428571,500  h28.571428571428573  v-95.72577993654056  q0,-4 -4,-4  h-20.571428571428573  q-4,0 -4,4  Z" fill="#03bbff" /> <path d="  M892.8571428571429,500  h28.571428571428573  v-148.90331983278514  q0,-4 -4,-4  h-20.571428571428573  q-4,0 -4,4  Z" fill="#03bbff" /> <path d="  M928.5714285714286,500  h28.571428571428573  v-237.60423375521384  q0,-4 -4,-4  h-20.571428571428573  q-4,0 -4,4  Z" fill="#03bbff" /> <path d="  M964.2857142857143,500  h28.571428571428573  v-97.35774813174487  q0,-4 -4,-4  h-20.571428571428573  q-4,0 -4,4  Z" fill="#03bbff" /> </svg>