<svg   id="chart"   width="1000"   height="500"   viewBox="0 0 1000 500"   xmlns="http://www.w3.org/2000/svg" >     		     <path d="  M0,500  h36.36363636363637  v-215.1859480173091  q0,-4 -4,-4  h-28.363636363636367  q-4,0 -4,4  Z" fill="#614747" /> <path d="  M45.45454545454545,500  h36.36363636363637  v-219.9814209893824  q0,-4 -4,-4  h-28.363636363636367  q-4,0 -4,4  Z" fill="#614747" /> <path d="  M90.9090909090909,500  h36.36363636363637  v-176.90477284934616  q0,-4 -4,-4  h-28.363636363636367  q-4,0 -4,4  Z" fill="#614747" /> <path d="  M136.36363636363637,500  h36.36363636363637  v-318.39835462814005  q0,-4 -4,-4  h-28.363636363636367  q-4,0 -4,4  Z" fill="#614747" /> <path d="  M181.8181818181818,500  h36.36363636363637  v-301.39459842663973  q0,-4 -4,-4  h-28.363636363636367  q-4,0 -4,4  Z" fill="#614747" /> <path d="  M227.27272727272725,500  h36.36363636363637  v-378.1502736691037  q0,-4 -4,-4  h-28.363636363636367  q-4,0 -4,4  Z" fill="#614747" /> <path d="  M272.72727272727275,500  h36.36363636363637  v-297.9658540154258  q0,-4 -4,-4  h-28.363636363636367  q-4,0 -4,4  Z" fill="#614747" /> <path d="  M318.1818181818182,500  h36.36363636363637  v-224.732503081137  q0,-4 -4,-4  h-28.363636363636367  q-4,0 -4,4  Z" fill="#614747" /> <path d="  M363.6363636363636,500  h36.36363636363637  v-146.37423002097802  q0,-4 -4,-4  h-28.363636363636367  q-4,0 -4,4  Z" fill="#614747" /> <path d="  M409.09090909090907,500  h36.36363636363637  v-110.47777791861631  q0,-4 -4,-4  h-28.363636363636367  q-4,0 -4,4  Z" fill="#614747" /> <path d="  M454.5454545454545,500  h36.36363636363637  v-384.1865853372536  q0,-4 -4,-4  h-28.363636363636367  q-4,0 -4,4  Z" fill="#614747" /> <path d="  M500,500  h36.36363636363637  v-421.653865864038  q0,-4 -4,-4  h-28.363636363636367  q-4,0 -4,4  Z" fill="#614747" /> <path d="  M545.4545454545455,500  h36.36363636363637  v-258.38857525652395  q0,-4 -4,-4  h-28.363636363636367  q-4,0 -4,4  Z" fill="#614747" /> <path d="  M590.9090909090909,500  h36.36363636363637  v-120.19095488543047  q0,-4 -4,-4  h-28.363636363636367  q-4,0 -4,4  Z" fill="#614747" /> <path d="  M636.3636363636364,500  h36.36363636363637  v-199.9715122517602  q0,-4 -4,-4  h-28.363636363636367  q-4,0 -4,4  Z" fill="#614747" /> <path d="  M681.8181818181818,500  h36.36363636363637  v-393.9138828459879  q0,-4 -4,-4  h-28.363636363636367  q-4,0 -4,4  Z" fill="#614747" /> <path d="  M727.2727272727273,500  h36.36363636363637  v-114.10311781880097  q0,-4 -4,-4  h-28.363636363636367  q-4,0 -4,4  Z" fill="#614747" /> <path d="  M772.7272727272727,500  h36.36363636363637  v-353.99428138472877  q0,-4 -4,-4  h-28.363636363636367  q-4,0 -4,4  Z" fill="#614747" /> <path d="  M818.1818181818181,500  h36.36363636363637  v-222.4672606081446  q0,-4 -4,-4  h-28.363636363636367  q-4,0 -4,4  Z" fill="#614747" /> <path d="  M863.6363636363636,500  h36.36363636363637  v-288.8563594034951  q0,-4 -4,-4  h-28.363636363636367  q-4,0 -4,4  Z" fill="#614747" /> <path d="  M909.090909090909,500  h36.36363636363637  v-213.45397818336096  q0,-4 -4,-4  h-28.363636363636367  q-4,0 -4,4  Z" fill="#614747" /> <path d="  M954.5454545454545,500  h36.36363636363637  v-96.44906094905815  q0,-4 -4,-4  h-28.363636363636367  q-4,0 -4,4  Z" fill="#614747" /> </svg>