<svg   id="chart"   width="1000"   height="500"   viewBox="0 0 1000 500"   xmlns="http://www.w3.org/2000/svg" >      <path d="M 0,230.0711525490293 C 4.000000000000002,238.9031884490792 12,301.88518910672553 20,274.2313320492788 C 28,246.57747499183213 32,106.27848135498007 40,91.80186726179585 C 48,77.32525316861162 51.99999999999999,169.48907074929383 60,201.84826158335767 C 68,234.2074524174215 72,265.8355857430346 80,253.59782143211504 C 88,241.36005712119547 92,126.05622514597493 100,140.65944002875983 C 108,155.26265491154473 112,290.0982020581394 120,326.61389584603955 C 128,363.1295896339397 132,331.284892899522 140,323.23790896826057 C 148,315.19092503699915 152,280.8665218838067 160,286.3789761897324 C 168,291.8914304956581 172,391.12564632947374 180,350.8001804978892 C 188,310.47471466630464 192,137.86861587435604 200,84.75164703180968 C 208,31.634678189263333 212,28.32970101773909 220,85.21533628515743 C 228,142.10097155257577 231.99999999999997,325.5116224193459 240,369.17982336890134 C 248,412.8480243184568 252,324.5240531917836 260,303.5563410329347 C 268,282.5886288740858 272,304.91824507205826 280,264.341262574657 C 288,223.7642800772557 292,137.51069888823997 300,100.67142854592845 C 308,63.83215820361692 312,28.018051807734587 320,80.14491086309937 C 328,132.27176991846414 332,363.494456358461 340,361.3057238227523 C 348,359.1169912870437 352,81.80708135295073 360,69.20124818455622 C 368,56.59541501616171 372,295.3070669914704 380,298.2765579807798 C 388,301.2460489700892 392,99.88975749357924 400,84.04870313110325 C 408,68.20764876862727 412,221.5794811992532 420,219.07128616839987 C 428,216.56309113754654 432,41.12526706256607 440,71.50772797683659 C 448,101.8901888911071 452,339.0504419978456 460,370.98359073975246 C 468,402.9167394816593 472,253.19451422476422 480,231.17347168637093 C 488,209.15242914797764 492,262.6154724941502 500,260.878378047786 C 508,259.1412836014218 512,201.88183921899423 520,222.48799945454988 C 528,243.09415969010553 532,375.53717372955595 540,363.9091792255643 C 548,352.28118472157263 552,168.1198474365334 560,164.34802693459164 C 568,160.57620643264988 572,317.99212750264525 580,345.0500767158555 C 588,372.1080259290657 592,331.59200376036114 600,299.6377730006427 C 608,267.6835422409243 612,173.85207590234552 620,185.27892291726323 C 628,196.70576993218094 632,324.14939616096893 640,356.77200807523127 C 648,389.3946199894936 652,340.56595578346423 660,348.39198248857497 C 668,356.2180091936857 672,422.7845662204763 680,395.90214160078506 C 688,369.01971698109384 692,265.2759932397414 700,213.97985939011897 C 708,162.6837255404965 712,163.32061104361068 720,139.42147235267277 C 728,115.52233366173485 732,50.83551414764624 740,94.48416593542942 C 748,138.13281772321258 752,362.0340091125584 760,357.6647312915886 C 768,353.29545347061884 772,91.96463842102158 780,72.63777683058038 C 788,53.31091524013918 792,222.14934934880188 800,261.03042333938265 C 808,299.9114973299634 812,294.1317108601816 820,267.0431467834843 C 828,239.954582706787 832,107.02082106947049 840,125.5876029558961 C 848,144.15438484232172 852,306.29030754510137 860,359.87705621561236 C 868,413.46380488612334 872,437.987809155153 880,393.5213463084511 C 888,349.05488346174917 892,141.76076694353173 900,137.5447419821029 C 908,133.32871702067405 912,372.67736483517325 920,372.4412215013069 C 928,372.2050781674406 932,141.15570922862 940,136.36402531277128 C 948,131.57234139692255 952,316.6965958192733 960,348.4828019220633 C 968,380.2690080248533 976,305.93260504578967 980,295.2950558267213,L 1000 500,L 0 500Z" fill="#7b22221a" />   <path d="M 0,230.0711525490293 C 4.000000000000002,238.9031884490792 12,301.88518910672553 20,274.2313320492788 C 28,246.57747499183213 32,106.27848135498007 40,91.80186726179585 C 48,77.32525316861162 51.99999999999999,169.48907074929383 60,201.84826158335767 C 68,234.2074524174215 72,265.8355857430346 80,253.59782143211504 C 88,241.36005712119547 92,126.05622514597493 100,140.65944002875983 C 108,155.26265491154473 112,290.0982020581394 120,326.61389584603955 C 128,363.1295896339397 132,331.284892899522 140,323.23790896826057 C 148,315.19092503699915 152,280.8665218838067 160,286.3789761897324 C 168,291.8914304956581 172,391.12564632947374 180,350.8001804978892 C 188,310.47471466630464 192,137.86861587435604 200,84.75164703180968 C 208,31.634678189263333 212,28.32970101773909 220,85.21533628515743 C 228,142.10097155257577 231.99999999999997,325.5116224193459 240,369.17982336890134 C 248,412.8480243184568 252,324.5240531917836 260,303.5563410329347 C 268,282.5886288740858 272,304.91824507205826 280,264.341262574657 C 288,223.7642800772557 292,137.51069888823997 300,100.67142854592845 C 308,63.83215820361692 312,28.018051807734587 320,80.14491086309937 C 328,132.27176991846414 332,363.494456358461 340,361.3057238227523 C 348,359.1169912870437 352,81.80708135295073 360,69.20124818455622 C 368,56.59541501616171 372,295.3070669914704 380,298.2765579807798 C 388,301.2460489700892 392,99.88975749357924 400,84.04870313110325 C 408,68.20764876862727 412,221.5794811992532 420,219.07128616839987 C 428,216.56309113754654 432,41.12526706256607 440,71.50772797683659 C 448,101.8901888911071 452,339.0504419978456 460,370.98359073975246 C 468,402.9167394816593 472,253.19451422476422 480,231.17347168637093 C 488,209.15242914797764 492,262.6154724941502 500,260.878378047786 C 508,259.1412836014218 512,201.88183921899423 520,222.48799945454988 C 528,243.09415969010553 532,375.53717372955595 540,363.9091792255643 C 548,352.28118472157263 552,168.1198474365334 560,164.34802693459164 C 568,160.57620643264988 572,317.99212750264525 580,345.0500767158555 C 588,372.1080259290657 592,331.59200376036114 600,299.6377730006427 C 608,267.6835422409243 612,173.85207590234552 620,185.27892291726323 C 628,196.70576993218094 632,324.14939616096893 640,356.77200807523127 C 648,389.3946199894936 652,340.56595578346423 660,348.39198248857497 C 668,356.2180091936857 672,422.7845662204763 680,395.90214160078506 C 688,369.01971698109384 692,265.2759932397414 700,213.97985939011897 C 708,162.6837255404965 712,163.32061104361068 720,139.42147235267277 C 728,115.52233366173485 732,50.83551414764624 740,94.48416593542942 C 748,138.13281772321258 752,362.0340091125584 760,357.6647312915886 C 768,353.29545347061884 772,91.96463842102158 780,72.63777683058038 C 788,53.31091524013918 792,222.14934934880188 800,261.03042333938265 C 808,299.9114973299634 812,294.1317108601816 820,267.0431467834843 C 828,239.954582706787 832,107.02082106947049 840,125.5876029558961 C 848,144.15438484232172 852,306.29030754510137 860,359.87705621561236 C 868,413.46380488612334 872,437.987809155153 880,393.5213463084511 C 888,349.05488346174917 892,141.76076694353173 900,137.5447419821029 C 908,133.32871702067405 912,372.67736483517325 920,372.4412215013069 C 928,372.2050781674406 932,141.15570922862 940,136.36402531277128 C 948,131.57234139692255 952,316.6965958192733 960,348.4828019220633 C 968,380.2690080248533 976,305.93260504578967 980,295.2950558267213" fill="none" stroke="#7b2222" stroke-width="4px" />   <g>   		<circle cx="0" cy="230.0711525490293" r="8" fill="#7b2222" />,		<circle cx="20" cy="274.2313320492788" r="8" fill="#7b2222" />,		<circle cx="40" cy="91.80186726179585" r="8" fill="#7b2222" />,		<circle cx="60" cy="201.84826158335767" r="8" fill="#7b2222" />,		<circle cx="80" cy="253.59782143211504" r="8" fill="#7b2222" />,		<circle cx="100" cy="140.65944002875983" r="8" fill="#7b2222" />,		<circle cx="120" cy="326.61389584603955" r="8" fill="#7b2222" />,		<circle cx="140" cy="323.23790896826057" r="8" fill="#7b2222" />,		<circle cx="160" cy="286.3789761897324" r="8" fill="#7b2222" />,		<circle cx="180" cy="350.8001804978892" r="8" fill="#7b2222" />,		<circle cx="200" cy="84.75164703180968" r="8" fill="#7b2222" />,		<circle cx="220" cy="85.21533628515743" r="8" fill="#7b2222" />,		<circle cx="240" cy="369.17982336890134" r="8" fill="#7b2222" />,		<circle cx="260" cy="303.5563410329347" r="8" fill="#7b2222" />,		<circle cx="280" cy="264.341262574657" r="8" fill="#7b2222" />,		<circle cx="300" cy="100.67142854592845" r="8" fill="#7b2222" />,		<circle cx="320" cy="80.14491086309937" r="8" fill="#7b2222" />,		<circle cx="340" cy="361.3057238227523" r="8" fill="#7b2222" />,		<circle cx="360" cy="69.20124818455622" r="8" fill="#7b2222" />,		<circle cx="380" cy="298.2765579807798" r="8" fill="#7b2222" />,		<circle cx="400" cy="84.04870313110325" r="8" fill="#7b2222" />,		<circle cx="420" cy="219.07128616839987" r="8" fill="#7b2222" />,		<circle cx="440" cy="71.50772797683659" r="8" fill="#7b2222" />,		<circle cx="460" cy="370.98359073975246" r="8" fill="#7b2222" />,		<circle cx="480" cy="231.17347168637093" r="8" fill="#7b2222" />,		<circle cx="500" cy="260.878378047786" r="8" fill="#7b2222" />,		<circle cx="520" cy="222.48799945454988" r="8" fill="#7b2222" />,		<circle cx="540" cy="363.9091792255643" r="8" fill="#7b2222" />,		<circle cx="560" cy="164.34802693459164" r="8" fill="#7b2222" />,		<circle cx="580" cy="345.0500767158555" r="8" fill="#7b2222" />,		<circle cx="600" cy="299.6377730006427" r="8" fill="#7b2222" />,		<circle cx="620" cy="185.27892291726323" r="8" fill="#7b2222" />,		<circle cx="640" cy="356.77200807523127" r="8" fill="#7b2222" />,		<circle cx="660" cy="348.39198248857497" r="8" fill="#7b2222" />,		<circle cx="680" cy="395.90214160078506" r="8" fill="#7b2222" />,		<circle cx="700" cy="213.97985939011897" r="8" fill="#7b2222" />,		<circle cx="720" cy="139.42147235267277" r="8" fill="#7b2222" />,		<circle cx="740" cy="94.48416593542942" r="8" fill="#7b2222" />,		<circle cx="760" cy="357.6647312915886" r="8" fill="#7b2222" />,		<circle cx="780" cy="72.63777683058038" r="8" fill="#7b2222" />,		<circle cx="800" cy="261.03042333938265" r="8" fill="#7b2222" />,		<circle cx="820" cy="267.0431467834843" r="8" fill="#7b2222" />,		<circle cx="840" cy="125.5876029558961" r="8" fill="#7b2222" />,		<circle cx="860" cy="359.87705621561236" r="8" fill="#7b2222" />,		<circle cx="880" cy="393.5213463084511" r="8" fill="#7b2222" />,		<circle cx="900" cy="137.5447419821029" r="8" fill="#7b2222" />,		<circle cx="920" cy="372.4412215013069" r="8" fill="#7b2222" />,		<circle cx="940" cy="136.36402531277128" r="8" fill="#7b2222" />,		<circle cx="960" cy="348.4828019220633" r="8" fill="#7b2222" />,		<circle cx="980" cy="295.2950558267213" r="8" fill="#7b2222" />   </g> </svg>