<svg   id="chart"   width="1000"   height="500"   viewBox="0 0 1000 500"   xmlns="http://www.w3.org/2000/svg" >      <path d="M 0,183.48138173921313 C 2.1999999999999997,220.00130945110593 6.6000000000000005,375.894127092784 11,366.0810202986771 C 15.4,356.26791350457023 17.600000000000012,186.79253480424543 22,134.41584776867876 C 26.399999999999995,82.03916073311208 28.599999999999998,88.13224201247934 33,104.19758512084377 C 37.4,120.2629282292082 39.60000000000001,167.94092836062805 44,214.74256331050094 C 48.4,261.54419826037383 50.6,335.86383555392456 55,338.2057598702081 C 59.4,340.54768418649167 61.60000000000001,265.7724480388481 66,226.45218489191882 C 70.4,187.13192174498954 72.60000000000001,167.08648003624154 77,141.60444413556172 C 81.4,116.1224082348819 83.60000000000001,80.67682506659806 88,99.04200538851973 C 92.4,117.4071857104414 94.6,217.7512227879176 99,233.4303457451701 C 103.4,249.10946870242256 105.6,167.9875995671187 110,177.43762017478207 C 114.4,186.88764078244543 116.6,274.87455355438095 121,280.6804487834869 C 125.4,286.48634401259284 127.60000000000001,245.86304716905346 132,206.4670963203119 C 136.4,167.07114547157033 138.6,68.02112820166617 143,83.70069453977902 C 147.4,99.38026087789187 149.6,262.44563074606435 154,284.86492801087616 C 158.4,307.28422527568796 160.6,182.09334287293518 165,195.79718086383792 C 169.4,209.50101885474066 171.6,317.4209158586193 176,353.3841179653899 C 180.4,389.3473200721605 182.6,413.7996522659927 187,375.6131913976909 C 191.4,337.42673052938915 193.60000000000002,214.4221603192512 198,162.45181362388115 C 202.4,110.48146692851111 204.6,127.93966639195308 209,115.76145792084071 C 213.4,103.58324944972834 215.6,80.2732525125201 220,101.56077126831929 C 224.4,122.84829002411847 226.6,187.81442209048026 231,222.19905169983662 C 235.4,256.58368130919297 237.6,239.8307312929917 242,273.48391931510105 C 246.4,307.1371073372104 248.6,434.0731547144368 253,390.4649918103835 C 257.4,346.8568289063302 259.6,73.25843955745098 264,55.44310479483471 C 268.4,37.627770032218436 270.6,291.3132938174306 275,301.3883179973021 C 279.4,311.4633421771737 281.6,148.88168444757844 286,105.8182256941925 C 290.4,62.754766940806576 292.59999999999997,54.425047362267335 297,86.07102423037247 C 301.4,117.71700109847762 303.6,204.03281011662676 308,264.0481100347182 C 312.4,324.06340995280965 314.6,363.9588581096999 319,386.14752382082963 C 323.4,408.33618953195935 325.6,383.8047214652796 330,374.99143859036684 C 334.4,366.17815571545407 336.6,353.2249770806392 341,342.0811094462657 C 345.4,330.93724181189225 347.6,332.089776017661 352,319.27210041849963 C 356.4,306.45442481933827 358.6,321.71141990185663 363,277.9927314504589 C 367.4,234.27404299906115 369.6,90.94979254933504 374,100.6786581615109 C 378.4,110.40752377368675 380.6,326.59111793097566 385,326.6370595113382 C 389.4,326.6830010917007 391.6,118.04361216680593 396,100.90836606332346 C 400.4,83.77311995984098 402.6,244.6520772596834 407,240.96082899392582 C 411.4,237.26958072816822 413.6,74.26633311275911 418,82.45212473453546 C 422.4,90.6379163563118 424.6,250.71199161539752 429,281.88978710280753 C 433.4,313.06758259021757 435.6,268.618256299093 440,238.34110217158553 C 444.4,208.06394804407807 446.6,129.07976805260003 451,130.5040164652703 C 455.4,131.92826487794056 457.6,218.24281218592245 462,245.46234423493684 C 466.4,272.6818762839512 468.6,278.0010596211327 473,266.6016767103423 C 477.4,255.2022937995519 479.6,210.6691542830896 484,188.46542968098493 C 488.4,166.26170507888025 490.6,146.21730840704817 495,155.58305369981895 C 499.4,164.94879899258973 501.6,191.973893800391 506,235.29415614483884 C 510.4,278.61441848928666 512.6,388.8670698172866 517,372.184365422058 C 521.4,355.5016610268294 523.6,157.7469872626259 528,151.88063416869574 C 532.4,146.01428107476556 534.6,328.86342189270164 539,342.85259995240716 C 543.4,356.8417780121127 545.6,245.53374794869904 550,221.82652446722335 C 554.4,198.11930098574766 556.6,248.35232742370397 561,224.3164825450287 C 565.4,200.2806376663534 567.6,93.21138488678908 572,101.64730007384702 C 576.4,110.08321526090496 578.6,254.31358032723287 583,266.4960584803184 C 587.4,278.678536633404 589.6,183.7024145630877 594,162.55969083927482 C 598.4,141.41696711546194 600.6,147.05717071864734 605,160.7824398612541 C 609.4,174.50770900386084 611.6,225.87712041280537 616,231.18603655230862 C 620.4,236.49495269181187 622.6,191.47755735967456 627,187.32702055877036 C 631.4,183.17648375786615 633.6,199.46710588908095 638,210.4333525477876 C 642.4,221.39959920649423 644.6,220.7260823828459 649,242.15825385230352 C 653.4,263.59042532176113 655.6,343.50465964269836 660,317.59420989507566 C 664.4,291.683760147453 666.6,114.13514487304387 671,112.60600511419017 C 675.4,111.07686535533647 677.6,317.6743878397143 682,309.94851110080714 C 686.4,302.22263436189996 688.6,102.16586258778344 693,73.97662141965424 C 697.4,45.78738025152503 699.6,143.55528886420547 704,169.0023052601611 C 708.4,194.44932165611675 710.6,166.70444704263613 715,201.21170339943245 C 719.4,235.71895975622877 721.6,331.44045872425374 726,341.5385870441427 C 730.4,351.6367153640316 732.6,246.76202241298031 737,251.70234499887707 C 741.4,256.64266758477385 743.6,346.7685383192304 748,366.24019997362643 C 752.4,385.71186162802246 754.6,390.3153959303165 759,349.0606532708573 C 763.4,307.8059106113981 765.6,195.0157106630013 770,159.96648667633042 C 774.4,124.91726268965955 776.6,185.56407831089027 781,173.81453333750295 C 785.4,162.06498836411564 787.6,76.302746142283 792,101.21876180939381 C 796.4,126.13477747650462 798.6,294.9860019171155 803,298.394611673057 C 807.4,301.8032214289985 809.6,140.70607332370002 814,118.26181058910123 C 818.4,95.81754785450242 820.6,154.73012729092505 825,186.17329800006297 C 829.4,217.6164687092009 831.6,263.9503443429363 836,275.4776641347908 C 840.4,287.0049839266453 842.6,268.2847860674124 847,243.80989695933545 C 851.4,219.33500785125847 853.6,170.632781592223 858,153.10321859440586 C 862.4,135.5736555965887 864.6,132.09890385671622 869,156.1620819702497 C 873.4,180.22526008378316 875.6,272.4209621105511 880,273.41910916207325 C 884.4,274.4172562135954 886.6,200.8346981702568 891,161.1528172278605 C 895.4,121.47093628546422 897.6,86.67370932113477 902,75.00970445009182 C 906.4,63.34569957904887 908.6,98.65699463395916 913,102.83279287264578 C 917.4,107.00859111133241 919.6,98.3531319983398 924,95.88869564352495 C 928.4,93.4242592887101 930.6,41.26148800178081 935,90.51061109857153 C 939.4,139.75973419536226 941.6,322.5227426611675 946,342.13431112747855 C 950.4,361.7458795937896 952.6,218.39059015454177 957,188.56845343012662 C 961.4,158.74631670571148 963.6,180.29870391326068 968,193.02362750540283 C 972.4,205.74855109754498 974.6,226.59390910119933 979,252.19307139083742 C 983.4,277.79223368047553 985.6,319.105883877178 990,321.0194389535933 C 994.4,322.9329940300086 996.6,251.6057121629154 1001,261.7608467729141 C 1005.4,271.9159813829128 1007.6,396.31225875774305 1012,371.79511200358667 C 1016.4,347.2779652494303 1018.6,187.4733825807276 1023,139.17511300213204 C 1027.4,90.87684342353649 1031.8,132.07803388891355 1034,130.30376411060894,L 1000 500,L 0 500Z" fill="#007dff1a" />   <path d="M 0,183.48138173921313 C 2.1999999999999997,220.00130945110593 6.6000000000000005,375.894127092784 11,366.0810202986771 C 15.4,356.26791350457023 17.600000000000012,186.79253480424543 22,134.41584776867876 C 26.399999999999995,82.03916073311208 28.599999999999998,88.13224201247934 33,104.19758512084377 C 37.4,120.2629282292082 39.60000000000001,167.94092836062805 44,214.74256331050094 C 48.4,261.54419826037383 50.6,335.86383555392456 55,338.2057598702081 C 59.4,340.54768418649167 61.60000000000001,265.7724480388481 66,226.45218489191882 C 70.4,187.13192174498954 72.60000000000001,167.08648003624154 77,141.60444413556172 C 81.4,116.1224082348819 83.60000000000001,80.67682506659806 88,99.04200538851973 C 92.4,117.4071857104414 94.6,217.7512227879176 99,233.4303457451701 C 103.4,249.10946870242256 105.6,167.9875995671187 110,177.43762017478207 C 114.4,186.88764078244543 116.6,274.87455355438095 121,280.6804487834869 C 125.4,286.48634401259284 127.60000000000001,245.86304716905346 132,206.4670963203119 C 136.4,167.07114547157033 138.6,68.02112820166617 143,83.70069453977902 C 147.4,99.38026087789187 149.6,262.44563074606435 154,284.86492801087616 C 158.4,307.28422527568796 160.6,182.09334287293518 165,195.79718086383792 C 169.4,209.50101885474066 171.6,317.4209158586193 176,353.3841179653899 C 180.4,389.3473200721605 182.6,413.7996522659927 187,375.6131913976909 C 191.4,337.42673052938915 193.60000000000002,214.4221603192512 198,162.45181362388115 C 202.4,110.48146692851111 204.6,127.93966639195308 209,115.76145792084071 C 213.4,103.58324944972834 215.6,80.2732525125201 220,101.56077126831929 C 224.4,122.84829002411847 226.6,187.81442209048026 231,222.19905169983662 C 235.4,256.58368130919297 237.6,239.8307312929917 242,273.48391931510105 C 246.4,307.1371073372104 248.6,434.0731547144368 253,390.4649918103835 C 257.4,346.8568289063302 259.6,73.25843955745098 264,55.44310479483471 C 268.4,37.627770032218436 270.6,291.3132938174306 275,301.3883179973021 C 279.4,311.4633421771737 281.6,148.88168444757844 286,105.8182256941925 C 290.4,62.754766940806576 292.59999999999997,54.425047362267335 297,86.07102423037247 C 301.4,117.71700109847762 303.6,204.03281011662676 308,264.0481100347182 C 312.4,324.06340995280965 314.6,363.9588581096999 319,386.14752382082963 C 323.4,408.33618953195935 325.6,383.8047214652796 330,374.99143859036684 C 334.4,366.17815571545407 336.6,353.2249770806392 341,342.0811094462657 C 345.4,330.93724181189225 347.6,332.089776017661 352,319.27210041849963 C 356.4,306.45442481933827 358.6,321.71141990185663 363,277.9927314504589 C 367.4,234.27404299906115 369.6,90.94979254933504 374,100.6786581615109 C 378.4,110.40752377368675 380.6,326.59111793097566 385,326.6370595113382 C 389.4,326.6830010917007 391.6,118.04361216680593 396,100.90836606332346 C 400.4,83.77311995984098 402.6,244.6520772596834 407,240.96082899392582 C 411.4,237.26958072816822 413.6,74.26633311275911 418,82.45212473453546 C 422.4,90.6379163563118 424.6,250.71199161539752 429,281.88978710280753 C 433.4,313.06758259021757 435.6,268.618256299093 440,238.34110217158553 C 444.4,208.06394804407807 446.6,129.07976805260003 451,130.5040164652703 C 455.4,131.92826487794056 457.6,218.24281218592245 462,245.46234423493684 C 466.4,272.6818762839512 468.6,278.0010596211327 473,266.6016767103423 C 477.4,255.2022937995519 479.6,210.6691542830896 484,188.46542968098493 C 488.4,166.26170507888025 490.6,146.21730840704817 495,155.58305369981895 C 499.4,164.94879899258973 501.6,191.973893800391 506,235.29415614483884 C 510.4,278.61441848928666 512.6,388.8670698172866 517,372.184365422058 C 521.4,355.5016610268294 523.6,157.7469872626259 528,151.88063416869574 C 532.4,146.01428107476556 534.6,328.86342189270164 539,342.85259995240716 C 543.4,356.8417780121127 545.6,245.53374794869904 550,221.82652446722335 C 554.4,198.11930098574766 556.6,248.35232742370397 561,224.3164825450287 C 565.4,200.2806376663534 567.6,93.21138488678908 572,101.64730007384702 C 576.4,110.08321526090496 578.6,254.31358032723287 583,266.4960584803184 C 587.4,278.678536633404 589.6,183.7024145630877 594,162.55969083927482 C 598.4,141.41696711546194 600.6,147.05717071864734 605,160.7824398612541 C 609.4,174.50770900386084 611.6,225.87712041280537 616,231.18603655230862 C 620.4,236.49495269181187 622.6,191.47755735967456 627,187.32702055877036 C 631.4,183.17648375786615 633.6,199.46710588908095 638,210.4333525477876 C 642.4,221.39959920649423 644.6,220.7260823828459 649,242.15825385230352 C 653.4,263.59042532176113 655.6,343.50465964269836 660,317.59420989507566 C 664.4,291.683760147453 666.6,114.13514487304387 671,112.60600511419017 C 675.4,111.07686535533647 677.6,317.6743878397143 682,309.94851110080714 C 686.4,302.22263436189996 688.6,102.16586258778344 693,73.97662141965424 C 697.4,45.78738025152503 699.6,143.55528886420547 704,169.0023052601611 C 708.4,194.44932165611675 710.6,166.70444704263613 715,201.21170339943245 C 719.4,235.71895975622877 721.6,331.44045872425374 726,341.5385870441427 C 730.4,351.6367153640316 732.6,246.76202241298031 737,251.70234499887707 C 741.4,256.64266758477385 743.6,346.7685383192304 748,366.24019997362643 C 752.4,385.71186162802246 754.6,390.3153959303165 759,349.0606532708573 C 763.4,307.8059106113981 765.6,195.0157106630013 770,159.96648667633042 C 774.4,124.91726268965955 776.6,185.56407831089027 781,173.81453333750295 C 785.4,162.06498836411564 787.6,76.302746142283 792,101.21876180939381 C 796.4,126.13477747650462 798.6,294.9860019171155 803,298.394611673057 C 807.4,301.8032214289985 809.6,140.70607332370002 814,118.26181058910123 C 818.4,95.81754785450242 820.6,154.73012729092505 825,186.17329800006297 C 829.4,217.6164687092009 831.6,263.9503443429363 836,275.4776641347908 C 840.4,287.0049839266453 842.6,268.2847860674124 847,243.80989695933545 C 851.4,219.33500785125847 853.6,170.632781592223 858,153.10321859440586 C 862.4,135.5736555965887 864.6,132.09890385671622 869,156.1620819702497 C 873.4,180.22526008378316 875.6,272.4209621105511 880,273.41910916207325 C 884.4,274.4172562135954 886.6,200.8346981702568 891,161.1528172278605 C 895.4,121.47093628546422 897.6,86.67370932113477 902,75.00970445009182 C 906.4,63.34569957904887 908.6,98.65699463395916 913,102.83279287264578 C 917.4,107.00859111133241 919.6,98.3531319983398 924,95.88869564352495 C 928.4,93.4242592887101 930.6,41.26148800178081 935,90.51061109857153 C 939.4,139.75973419536226 941.6,322.5227426611675 946,342.13431112747855 C 950.4,361.7458795937896 952.6,218.39059015454177 957,188.56845343012662 C 961.4,158.74631670571148 963.6,180.29870391326068 968,193.02362750540283 C 972.4,205.74855109754498 974.6,226.59390910119933 979,252.19307139083742 C 983.4,277.79223368047553 985.6,319.105883877178 990,321.0194389535933 C 994.4,322.9329940300086 996.6,251.6057121629154 1001,261.7608467729141 C 1005.4,271.9159813829128 1007.6,396.31225875774305 1012,371.79511200358667 C 1016.4,347.2779652494303 1018.6,187.4733825807276 1023,139.17511300213204 C 1027.4,90.87684342353649 1031.8,132.07803388891355 1034,130.30376411060894" fill="none" stroke="#007dff" stroke-width="4px" />   <g>   		<circle cx="0" cy="183.48138173921313" r="8" fill="#007dff" />,		<circle cx="11" cy="366.0810202986771" r="8" fill="#007dff" />,		<circle cx="22" cy="134.41584776867876" r="8" fill="#007dff" />,		<circle cx="33" cy="104.19758512084377" r="8" fill="#007dff" />,		<circle cx="44" cy="214.74256331050094" r="8" fill="#007dff" />,		<circle cx="55" cy="338.2057598702081" r="8" fill="#007dff" />,		<circle cx="66" cy="226.45218489191882" r="8" fill="#007dff" />,		<circle cx="77" cy="141.60444413556172" r="8" fill="#007dff" />,		<circle cx="88" cy="99.04200538851973" r="8" fill="#007dff" />,		<circle cx="99" cy="233.4303457451701" r="8" fill="#007dff" />,		<circle cx="110" cy="177.43762017478207" r="8" fill="#007dff" />,		<circle cx="121" cy="280.6804487834869" r="8" fill="#007dff" />,		<circle cx="132" cy="206.4670963203119" r="8" fill="#007dff" />,		<circle cx="143" cy="83.70069453977902" r="8" fill="#007dff" />,		<circle cx="154" cy="284.86492801087616" r="8" fill="#007dff" />,		<circle cx="165" cy="195.79718086383792" r="8" fill="#007dff" />,		<circle cx="176" cy="353.3841179653899" r="8" fill="#007dff" />,		<circle cx="187" cy="375.6131913976909" r="8" fill="#007dff" />,		<circle cx="198" cy="162.45181362388115" r="8" fill="#007dff" />,		<circle cx="209" cy="115.76145792084071" r="8" fill="#007dff" />,		<circle cx="220" cy="101.56077126831929" r="8" fill="#007dff" />,		<circle cx="231" cy="222.19905169983662" r="8" fill="#007dff" />,		<circle cx="242" cy="273.48391931510105" r="8" fill="#007dff" />,		<circle cx="253" cy="390.4649918103835" r="8" fill="#007dff" />,		<circle cx="264" cy="55.44310479483471" r="8" fill="#007dff" />,		<circle cx="275" cy="301.3883179973021" r="8" fill="#007dff" />,		<circle cx="286" cy="105.8182256941925" r="8" fill="#007dff" />,		<circle cx="297" cy="86.07102423037247" r="8" fill="#007dff" />,		<circle cx="308" cy="264.0481100347182" r="8" fill="#007dff" />,		<circle cx="319" cy="386.14752382082963" r="8" fill="#007dff" />,		<circle cx="330" cy="374.99143859036684" r="8" fill="#007dff" />,		<circle cx="341" cy="342.0811094462657" r="8" fill="#007dff" />,		<circle cx="352" cy="319.27210041849963" r="8" fill="#007dff" />,		<circle cx="363" cy="277.9927314504589" r="8" fill="#007dff" />,		<circle cx="374" cy="100.6786581615109" r="8" fill="#007dff" />,		<circle cx="385" cy="326.6370595113382" r="8" fill="#007dff" />,		<circle cx="396" cy="100.90836606332346" r="8" fill="#007dff" />,		<circle cx="407" cy="240.96082899392582" r="8" fill="#007dff" />,		<circle cx="418" cy="82.45212473453546" r="8" fill="#007dff" />,		<circle cx="429" cy="281.88978710280753" r="8" fill="#007dff" />,		<circle cx="440" cy="238.34110217158553" r="8" fill="#007dff" />,		<circle cx="451" cy="130.5040164652703" r="8" fill="#007dff" />,		<circle cx="462" cy="245.46234423493684" r="8" fill="#007dff" />,		<circle cx="473" cy="266.6016767103423" r="8" fill="#007dff" />,		<circle cx="484" cy="188.46542968098493" r="8" fill="#007dff" />,		<circle cx="495" cy="155.58305369981895" r="8" fill="#007dff" />,		<circle cx="506" cy="235.29415614483884" r="8" fill="#007dff" />,		<circle cx="517" cy="372.184365422058" r="8" fill="#007dff" />,		<circle cx="528" cy="151.88063416869574" r="8" fill="#007dff" />,		<circle cx="539" cy="342.85259995240716" r="8" fill="#007dff" />,		<circle cx="550" cy="221.82652446722335" r="8" fill="#007dff" />,		<circle cx="561" cy="224.3164825450287" r="8" fill="#007dff" />,		<circle cx="572" cy="101.64730007384702" r="8" fill="#007dff" />,		<circle cx="583" cy="266.4960584803184" r="8" fill="#007dff" />,		<circle cx="594" cy="162.55969083927482" r="8" fill="#007dff" />,		<circle cx="605" cy="160.7824398612541" r="8" fill="#007dff" />,		<circle cx="616" cy="231.18603655230862" r="8" fill="#007dff" />,		<circle cx="627" cy="187.32702055877036" r="8" fill="#007dff" />,		<circle cx="638" cy="210.4333525477876" r="8" fill="#007dff" />,		<circle cx="649" cy="242.15825385230352" r="8" fill="#007dff" />,		<circle cx="660" cy="317.59420989507566" r="8" fill="#007dff" />,		<circle cx="671" cy="112.60600511419017" r="8" fill="#007dff" />,		<circle cx="682" cy="309.94851110080714" r="8" fill="#007dff" />,		<circle cx="693" cy="73.97662141965424" r="8" fill="#007dff" />,		<circle cx="704" cy="169.0023052601611" r="8" fill="#007dff" />,		<circle cx="715" cy="201.21170339943245" r="8" fill="#007dff" />,		<circle cx="726" cy="341.5385870441427" r="8" fill="#007dff" />,		<circle cx="737" cy="251.70234499887707" r="8" fill="#007dff" />,		<circle cx="748" cy="366.24019997362643" r="8" fill="#007dff" />,		<circle cx="759" cy="349.0606532708573" r="8" fill="#007dff" />,		<circle cx="770" cy="159.96648667633042" r="8" fill="#007dff" />,		<circle cx="781" cy="173.81453333750295" r="8" fill="#007dff" />,		<circle cx="792" cy="101.21876180939381" r="8" fill="#007dff" />,		<circle cx="803" cy="298.394611673057" r="8" fill="#007dff" />,		<circle cx="814" cy="118.26181058910123" r="8" fill="#007dff" />,		<circle cx="825" cy="186.17329800006297" r="8" fill="#007dff" />,		<circle cx="836" cy="275.4776641347908" r="8" fill="#007dff" />,		<circle cx="847" cy="243.80989695933545" r="8" fill="#007dff" />,		<circle cx="858" cy="153.10321859440586" r="8" fill="#007dff" />,		<circle cx="869" cy="156.1620819702497" r="8" fill="#007dff" />,		<circle cx="880" cy="273.41910916207325" r="8" fill="#007dff" />,		<circle cx="891" cy="161.1528172278605" r="8" fill="#007dff" />,		<circle cx="902" cy="75.00970445009182" r="8" fill="#007dff" />,		<circle cx="913" cy="102.83279287264578" r="8" fill="#007dff" />,		<circle cx="924" cy="95.88869564352495" r="8" fill="#007dff" />,		<circle cx="935" cy="90.51061109857153" r="8" fill="#007dff" />,		<circle cx="946" cy="342.13431112747855" r="8" fill="#007dff" />,		<circle cx="957" cy="188.56845343012662" r="8" fill="#007dff" />,		<circle cx="968" cy="193.02362750540283" r="8" fill="#007dff" />,		<circle cx="979" cy="252.19307139083742" r="8" fill="#007dff" />,		<circle cx="990" cy="321.0194389535933" r="8" fill="#007dff" />,		<circle cx="1001" cy="261.7608467729141" r="8" fill="#007dff" />,		<circle cx="1012" cy="371.79511200358667" r="8" fill="#007dff" />,		<circle cx="1023" cy="139.17511300213204" r="8" fill="#007dff" />,		<circle cx="1034" cy="130.30376411060894" r="8" fill="#007dff" />   </g> </svg>