<svg   id="chart"   width="1000"   height="500"   viewBox="0 0 1000 500"   xmlns="http://www.w3.org/2000/svg" >      <path d="M 0,499.3735834610888 C 10.6,495.9547829855842 31.8,492.4164719711376 53,482.27958108356563 C 74.2,472.1426901959937 84.8,454.4422350402286 106,448.689129023229 C 127.2,442.9360230062294 137.8,461.84487235981504 159,453.5140509985676 C 180.2,445.18322963732015 190.8,413.70930227846014 212,407.03502221699165 C 233.2,400.36074215552316 243.8,422.62668012000717 265,420.14265069122507 C 286.2,417.658621262443 296.8,400.6638271664032 318,394.61487507308107 C 339.2,388.5659229797589 349.8,404.43810215298896 371,389.89789022461434 C 392.2,375.3576782962397 402.8,339.8158715606834 424,321.91381543120787 C 445.2,304.01175930173235 455.8,314.7943451962398 477,300.3876095772368 C 498.2,285.98087395823376 508.8,261.7936270485234 530,249.88013733619272 C 551.2,237.96664762386206 561.8,248.970401197713 583,240.8201610155835 C 604.2,232.669920833454 614.8,204.45993384950125 636,209.12893642554525 C 657.2,213.79793900158927 667.8,265.77615810460827 689,264.16517389580355 C 710.2,262.5541896869988 720.8,213.04366586300227 742,201.07401538152175 C 763.2,189.10436490004122 773.8,192.02660455769703 795,204.31692148840085 C 816.2,216.60723841910468 826.8,259.08458734488676 848,262.52560003504084 C 869.2,265.9666127251949 879.8,240.06034937806453 901,221.52198493917132 C 922.2,202.98362050027814 932.8,175.51817329638914 954,169.83377784057487 C 975.2,164.1493823847606 996.4,188.44676169619493 1007,193.10000766009995,L 1000 500,L 0 500Z" fill="#444cf71a" />   <path d="M 0,499.3735834610888 C 10.6,495.9547829855842 31.8,492.4164719711376 53,482.27958108356563 C 74.2,472.1426901959937 84.8,454.4422350402286 106,448.689129023229 C 127.2,442.9360230062294 137.8,461.84487235981504 159,453.5140509985676 C 180.2,445.18322963732015 190.8,413.70930227846014 212,407.03502221699165 C 233.2,400.36074215552316 243.8,422.62668012000717 265,420.14265069122507 C 286.2,417.658621262443 296.8,400.6638271664032 318,394.61487507308107 C 339.2,388.5659229797589 349.8,404.43810215298896 371,389.89789022461434 C 392.2,375.3576782962397 402.8,339.8158715606834 424,321.91381543120787 C 445.2,304.01175930173235 455.8,314.7943451962398 477,300.3876095772368 C 498.2,285.98087395823376 508.8,261.7936270485234 530,249.88013733619272 C 551.2,237.96664762386206 561.8,248.970401197713 583,240.8201610155835 C 604.2,232.669920833454 614.8,204.45993384950125 636,209.12893642554525 C 657.2,213.79793900158927 667.8,265.77615810460827 689,264.16517389580355 C 710.2,262.5541896869988 720.8,213.04366586300227 742,201.07401538152175 C 763.2,189.10436490004122 773.8,192.02660455769703 795,204.31692148840085 C 816.2,216.60723841910468 826.8,259.08458734488676 848,262.52560003504084 C 869.2,265.9666127251949 879.8,240.06034937806453 901,221.52198493917132 C 922.2,202.98362050027814 932.8,175.51817329638914 954,169.83377784057487 C 975.2,164.1493823847606 996.4,188.44676169619493 1007,193.10000766009995" fill="none" stroke="#444cf7" stroke-width="4px" />   <g>   		<circle cx="0" cy="499.3735834610888" r="8" fill="#444cf7" />,		<circle cx="53" cy="482.27958108356563" r="8" fill="#444cf7" />,		<circle cx="106" cy="448.689129023229" r="8" fill="#444cf7" />,		<circle cx="159" cy="453.5140509985676" r="8" fill="#444cf7" />,		<circle cx="212" cy="407.03502221699165" r="8" fill="#444cf7" />,		<circle cx="265" cy="420.14265069122507" r="8" fill="#444cf7" />,		<circle cx="318" cy="394.61487507308107" r="8" fill="#444cf7" />,		<circle cx="371" cy="389.89789022461434" r="8" fill="#444cf7" />,		<circle cx="424" cy="321.91381543120787" r="8" fill="#444cf7" />,		<circle cx="477" cy="300.3876095772368" r="8" fill="#444cf7" />,		<circle cx="530" cy="249.88013733619272" r="8" fill="#444cf7" />,		<circle cx="583" cy="240.8201610155835" r="8" fill="#444cf7" />,		<circle cx="636" cy="209.12893642554525" r="8" fill="#444cf7" />,		<circle cx="689" cy="264.16517389580355" r="8" fill="#444cf7" />,		<circle cx="742" cy="201.07401538152175" r="8" fill="#444cf7" />,		<circle cx="795" cy="204.31692148840085" r="8" fill="#444cf7" />,		<circle cx="848" cy="262.52560003504084" r="8" fill="#444cf7" />,		<circle cx="901" cy="221.52198493917132" r="8" fill="#444cf7" />,		<circle cx="954" cy="169.83377784057487" r="8" fill="#444cf7" />,		<circle cx="1007" cy="193.10000766009995" r="8" fill="#444cf7" />   </g> </svg>