<svg   id="chart"   width="1000"   height="500"   viewBox="0 0 1000 500"   xmlns="http://www.w3.org/2000/svg" >      <path d="M 0,17.319263890175804 C 18.200000000000003,21.03608940942119 54.599999999999994,28.125169465561715 91,35.90339148640274 C 127.4,43.68161350724377 145.6,41.326306117627205 182,56.210373994380944 C 218.4,71.09444187113468 236.6,86.49716641029364 273,110.32373087017143 C 309.4,134.15029533004923 327.6,163.3211540414495 364,175.34319629376995 C 400.4,187.3652385460904 418.6,176.68747677026585 455,170.4339421317737 C 491.4,164.18040749328156 509.6,131.2447313413519 546,144.07552310130927 C 582.4,156.90631486126668 600.6,215.05740585333638 637,234.58790093156068 C 673.4,254.118396009785 691.6,231.5847499373969 728,241.72799849243086 C 764.4,251.87124704746483 782.6,248.68705070251218 819,285.30414370673054 C 855.4,321.9212367109489 873.6,407.19140495236445 910,424.8134635135226 C 946.4,442.43552207468076 982.8,383.6942419127215 1001,373.41443651252126,L 1000 500,L 0 500Z" fill="#ff71031a" />   <path d="M 0,17.319263890175804 C 18.200000000000003,21.03608940942119 54.599999999999994,28.125169465561715 91,35.90339148640274 C 127.4,43.68161350724377 145.6,41.326306117627205 182,56.210373994380944 C 218.4,71.09444187113468 236.6,86.49716641029364 273,110.32373087017143 C 309.4,134.15029533004923 327.6,163.3211540414495 364,175.34319629376995 C 400.4,187.3652385460904 418.6,176.68747677026585 455,170.4339421317737 C 491.4,164.18040749328156 509.6,131.2447313413519 546,144.07552310130927 C 582.4,156.90631486126668 600.6,215.05740585333638 637,234.58790093156068 C 673.4,254.118396009785 691.6,231.5847499373969 728,241.72799849243086 C 764.4,251.87124704746483 782.6,248.68705070251218 819,285.30414370673054 C 855.4,321.9212367109489 873.6,407.19140495236445 910,424.8134635135226 C 946.4,442.43552207468076 982.8,383.6942419127215 1001,373.41443651252126" fill="none" stroke="#ff7103" stroke-width="4px" />   <g>   		<circle cx="0" cy="17.319263890175804" r="8" fill="#ff7103" />,		<circle cx="91" cy="35.90339148640274" r="8" fill="#ff7103" />,		<circle cx="182" cy="56.210373994380944" r="8" fill="#ff7103" />,		<circle cx="273" cy="110.32373087017143" r="8" fill="#ff7103" />,		<circle cx="364" cy="175.34319629376995" r="8" fill="#ff7103" />,		<circle cx="455" cy="170.4339421317737" r="8" fill="#ff7103" />,		<circle cx="546" cy="144.07552310130927" r="8" fill="#ff7103" />,		<circle cx="637" cy="234.58790093156068" r="8" fill="#ff7103" />,		<circle cx="728" cy="241.72799849243086" r="8" fill="#ff7103" />,		<circle cx="819" cy="285.30414370673054" r="8" fill="#ff7103" />,		<circle cx="910" cy="424.8134635135226" r="8" fill="#ff7103" />,		<circle cx="1001" cy="373.41443651252126" r="8" fill="#ff7103" />   </g> </svg>