<svg   id="chart"   width="3000"   height="500"   viewBox="0 0 30000 500"   xmlns="http://www.w3.org/2000/svg" >      <path d="M 0,499.8638853707239 C 31.600000000000005,496.9875293106152 94.79999999999998,493.5809901735802 158,485.4821050701804 C 221.20000000000002,477.38321996678064 252.8,470.65937292397825 316,459.3694598537251 C 379.2,448.079546783472 410.8,438.4808601766204 474,429.0325397189148 C 537.2,419.58421926120917 568.8,412.6826260558132 632,412.12785756519713 C 695.2,411.57308907458105 726.8,430.85139457435326 790,426.25869726583437 C 853.2,421.6659999573155 884.8,394.207725653191 948,389.16437102260267 C 1011.2,384.1210163920143 1042.8,417.61901413023315 1106,401.04192411289273 C 1169.2,384.46483409555236 1200.8,330.8142662065762 1264,306.27892093590077 C 1327.2,281.7435756652253 1358.8,271.6878753293415 1422,278.3651977595156 C 1485.2,285.0425201896897 1516.8,332.642640772854 1580,339.66553308677123 C 1643.2,346.68842540068846 1674.8,325.92425897876876 1738,313.47965932910165 C 1801.2,301.03505967943454 1832.8,292.16295219191954 1896,277.4425348384358 C 1959.2,262.72211748495204 1990.8,260.0232508705295 2054,239.87757256168283 C 2117.2,219.73189425283613 2148.8,166.79226329631143 2212,176.71414329420224 C 2275.2,186.63602329209306 2306.8,299.1510201584245 2370,289.4869725511369 C 2433.2,279.8229249438493 2464.8,150.18235139705158 2528,128.39390525776423 C 2591.2,106.60545911847689 2622.8,174.64630512392725 2686,180.5447418547002 C 2749.2,186.44317858547316 2780.8,148.16702769926087 2844,157.88608891162903 C 2907.2,167.60515012399722 2970.4,214.88925611555868 3002,229.1400479165411,L 3000 500,L 0 500Z" fill="#444cf71a" />   <path d="M 0,499.8638853707239 C 31.600000000000005,496.9875293106152 94.79999999999998,493.5809901735802 158,485.4821050701804 C 221.20000000000002,477.38321996678064 252.8,470.65937292397825 316,459.3694598537251 C 379.2,448.079546783472 410.8,438.4808601766204 474,429.0325397189148 C 537.2,419.58421926120917 568.8,412.6826260558132 632,412.12785756519713 C 695.2,411.57308907458105 726.8,430.85139457435326 790,426.25869726583437 C 853.2,421.6659999573155 884.8,394.207725653191 948,389.16437102260267 C 1011.2,384.1210163920143 1042.8,417.61901413023315 1106,401.04192411289273 C 1169.2,384.46483409555236 1200.8,330.8142662065762 1264,306.27892093590077 C 1327.2,281.7435756652253 1358.8,271.6878753293415 1422,278.3651977595156 C 1485.2,285.0425201896897 1516.8,332.642640772854 1580,339.66553308677123 C 1643.2,346.68842540068846 1674.8,325.92425897876876 1738,313.47965932910165 C 1801.2,301.03505967943454 1832.8,292.16295219191954 1896,277.4425348384358 C 1959.2,262.72211748495204 1990.8,260.0232508705295 2054,239.87757256168283 C 2117.2,219.73189425283613 2148.8,166.79226329631143 2212,176.71414329420224 C 2275.2,186.63602329209306 2306.8,299.1510201584245 2370,289.4869725511369 C 2433.2,279.8229249438493 2464.8,150.18235139705158 2528,128.39390525776423 C 2591.2,106.60545911847689 2622.8,174.64630512392725 2686,180.5447418547002 C 2749.2,186.44317858547316 2780.8,148.16702769926087 2844,157.88608891162903 C 2907.2,167.60515012399722 2970.4,214.88925611555868 3002,229.1400479165411" fill="none" stroke="#444cf7" stroke-width="4px" />   <g>   		<circle cx="0" cy="499.8638853707239" r="8" fill="#444cf7" />,		<circle cx="158" cy="485.4821050701804" r="8" fill="#444cf7" />,		<circle cx="316" cy="459.3694598537251" r="8" fill="#444cf7" />,		<circle cx="474" cy="429.0325397189148" r="8" fill="#444cf7" />,		<circle cx="632" cy="412.12785756519713" r="8" fill="#444cf7" />,		<circle cx="790" cy="426.25869726583437" r="8" fill="#444cf7" />,		<circle cx="948" cy="389.16437102260267" r="8" fill="#444cf7" />,		<circle cx="1106" cy="401.04192411289273" r="8" fill="#444cf7" />,		<circle cx="1264" cy="306.27892093590077" r="8" fill="#444cf7" />,		<circle cx="1422" cy="278.3651977595156" r="8" fill="#444cf7" />,		<circle cx="1580" cy="339.66553308677123" r="8" fill="#444cf7" />,		<circle cx="1738" cy="313.47965932910165" r="8" fill="#444cf7" />,		<circle cx="1896" cy="277.4425348384358" r="8" fill="#444cf7" />,		<circle cx="2054" cy="239.87757256168283" r="8" fill="#444cf7" />,		<circle cx="2212" cy="176.71414329420224" r="8" fill="#444cf7" />,		<circle cx="2370" cy="289.4869725511369" r="8" fill="#444cf7" />,		<circle cx="2528" cy="128.39390525776423" r="8" fill="#444cf7" />,		<circle cx="2686" cy="180.5447418547002" r="8" fill="#444cf7" />,		<circle cx="2844" cy="157.88608891162903" r="8" fill="#444cf7" />,		<circle cx="3002" cy="229.1400479165411" r="8" fill="#444cf7" />   </g> </svg>